<?xml version="1.0" standalone="no"?>
<!DOCTYPE svg PUBLIC "-//W3C//DTD SVG 20010904//EN"
 "http://www.w3.org/TR/2001/REC-SVG-20010904/DTD/svg10.dtd">
<svg version="1.0" xmlns="http://www.w3.org/2000/svg"
 width="400.000000pt" height="400.000000pt" viewBox="0 0 400.000000 400.000000"
 preserveAspectRatio="xMidYMid meet">
<metadata>
Created by potrace 1.14, written by Peter Selinger 2001-2017
</metadata>
<g transform="translate(0.000000,400.000000) scale(0.100000,-0.100000)"
fill="#000000" stroke="none">
<path d="M2665 3367 c-96 -37 -185 -109 -327 -265 l-58 -63 -61 21 c-151 49
-341 48 -487 -2 l-62 -22 -91 90 c-116 114 -104 104 -174 149 -54 36 -66 39
-128 40 -66 0 -69 -1 -97 -35 -40 -48 -76 -165 -91 -290 -15 -132 4 -272 56
-423 20 -56 38 -109 41 -118 4 -10 -9 -30 -35 -54 -23 -22 -41 -48 -41 -58 0
-10 13 -32 30 -49 16 -16 30 -32 30 -36 0 -3 -14 -20 -31 -38 -36 -37 -34 -53
10 -101 l29 -32 -24 -16 c-14 -9 -24 -25 -24 -39 0 -29 99 -142 181 -206 32
-25 58 -49 59 -54 0 -5 -8 -16 -18 -25 -34 -29 -92 -112 -116 -165 -51 -109
-61 -156 -61 -276 0 -98 -3 -119 -20 -141 -18 -25 -20 -25 -60 -11 -80 29
-159 -9 -191 -94 -34 -89 15 -244 106 -335 28 -27 76 -62 108 -77 l57 -27 826
0 826 0 77 39 c58 30 89 53 121 93 53 65 89 165 90 248 0 51 -4 66 -30 99 -16
21 -42 44 -56 50 l-27 11 38 63 c64 105 66 233 8 398 -30 84 -32 97 -33 234 0
131 2 150 22 191 43 85 119 140 178 125 36 -9 83 -53 90 -85 3 -15 19 -41 36
-57 26 -25 39 -29 103 -32 86 -5 132 12 169 61 74 98 59 213 -40 313 -57 57
-113 89 -188 108 -165 44 -314 -3 -451 -140 l-71 -72 -31 30 -30 30 39 40 c46
48 51 83 14 100 -14 6 -25 14 -25 18 0 4 11 40 26 81 50 147 64 226 64 367 0
235 -52 386 -152 438 -32 17 -62 17 -103 1z m-6 -104 c-53 -56 -129 -148 -129
-157 0 -3 -11 -28 -24 -55 -13 -27 -26 -61 -30 -76 l-7 -27 -18 24 c-10 12
-21 31 -24 42 -9 23 25 93 67 139 48 53 66 76 66 88 0 5 4 8 9 4 6 -3 14 3 20
12 7 13 10 14 11 4 0 -10 6 -7 18 7 18 20 54 40 77 41 5 1 -11 -20 -36 -46z
m193 -103 c18 -69 23 -111 23 -230 0 -145 -8 -195 -46 -316 -17 -54 -23 -61
-45 -61 -21 0 -23 2 -12 15 11 13 11 14 0 8 -23 -14 -89 71 -78 99 3 9 2 13
-4 10 -14 -9 -12 18 3 35 6 8 3 7 -8 -2 -20 -17 -22 -16 -39 17 -10 18 -18 37
-16 41 1 4 -4 11 -12 15 -11 7 -10 11 2 20 13 9 13 10 -1 6 -10 -3 -26 4 -37
16 -11 12 -28 28 -36 35 -9 7 -16 18 -16 24 0 6 10 3 22 -8 20 -18 20 -17 -2
14 -13 17 -27 32 -32 32 -8 0 1 27 34 98 11 23 23 40 28 37 4 -3 6 4 3 15 -3
11 0 20 6 20 6 0 11 6 11 14 0 19 132 153 161 165 38 15 65 -20 91 -119z
m-1532 85 c36 -6 217 -165 203 -179 -3 -3 -1 -6 5 -6 21 0 13 -54 -12 -77
l-24 -23 -22 59 c-12 33 -30 67 -41 77 -10 9 -19 21 -19 26 0 15 -70 89 -125
133 -19 15 -19 16 5 3 14 -7 27 -13 30 -13z m-76 -20 c10 -7 15 -18 11 -24 -3
-7 0 -8 9 -5 9 3 16 1 16 -6 0 -6 4 -9 9 -6 11 7 33 -18 24 -27 -3 -4 -1 -7 6
-7 7 0 11 -7 8 -14 -4 -10 -1 -13 7 -10 15 6 47 -38 43 -58 -2 -7 -2 -10 0 -5
3 4 9 4 14 1 6 -3 5 -11 -2 -20 -10 -12 -9 -13 4 -9 10 4 18 -1 23 -17 4 -13
7 -26 6 -30 -1 -5 2 -8 7 -8 5 0 15 -16 21 -36 11 -34 10 -37 -23 -71 -20 -19
-41 -32 -47 -28 -6 3 -10 3 -9 -2 4 -22 -3 -40 -25 -66 -13 -15 -29 -41 -36
-57 -7 -17 -17 -27 -23 -23 -6 4 -8 0 -5 -8 3 -8 1 -25 -4 -39 -7 -18 -11 -21
-17 -11 -6 9 -11 10 -15 2 -4 -6 -2 -11 3 -11 15 0 14 -33 -3 -55 -8 -11 -11
-26 -8 -34 3 -9 1 -12 -6 -7 -8 5 -10 2 -6 -8 3 -9 2 -16 -4 -16 -16 0 -53 99
-73 198 -33 165 -19 384 32 489 22 46 33 51 63 28z m945 -205 c95 -31 162 -58
171 -71 3 -3 19 -13 35 -22 17 -9 48 -32 70 -51 22 -20 45 -36 50 -36 6 0 -1
-10 -15 -21 -24 -19 -24 -20 -2 -9 25 12 23 13 72 -47 9 -10 30 -45 49 -78 18
-33 40 -68 48 -77 8 -9 12 -22 7 -29 -4 -7 -3 -10 4 -5 6 3 13 -2 16 -11 7
-22 112 -133 126 -133 23 0 8 -31 -22 -46 -62 -32 -63 -55 -4 -117 24 -25 47
-43 51 -39 4 4 3 -3 -4 -15 -6 -12 -27 -34 -46 -49 -23 -17 -35 -35 -35 -51 0
-13 -4 -21 -10 -18 -5 3 -10 -1 -10 -9 0 -9 -3 -16 -8 -16 -4 0 -25 -16 -47
-35 -22 -19 -45 -35 -51 -35 -6 0 -18 -7 -25 -16 -7 -9 -22 -20 -33 -24 -18
-6 -16 -10 19 -32 22 -14 48 -34 58 -45 17 -19 16 -21 -40 -55 -304 -187 -636
-236 -953 -141 -124 37 -310 134 -310 162 0 4 16 26 36 50 20 23 35 43 33 45
-2 2 -29 19 -59 39 -30 19 -68 47 -85 61 -16 14 -33 26 -37 26 -4 0 -10 9 -13
21 -4 12 -21 33 -37 48 l-31 27 28 30 c15 16 31 38 35 49 9 23 -5 55 -24 55
-7 0 -20 8 -29 18 -16 17 -15 20 14 48 42 40 74 96 110 195 88 244 241 390
489 467 99 32 98 31 211 27 82 -3 125 -11 198 -35z m341 -110 c0 -5 -4 -10
-10 -10 -5 0 -10 5 -10 10 0 6 5 10 10 10 6 0 10 -4 10 -10z m265 -370 c3 -5
-1 -10 -10 -10 -9 0 -13 5 -10 10 3 6 8 10 10 10 2 0 7 -4 10 -10z m546 -90
c110 -21 229 -105 265 -187 16 -38 18 -108 4 -149 -16 -44 -83 -87 -144 -91
-68 -5 -108 20 -136 84 -48 112 -162 132 -261 45 -26 -23 -41 -29 -62 -25 -25
5 -29 1 -55 -53 -23 -51 -27 -74 -30 -171 -4 -114 -1 -133 48 -308 26 -94 26
-225 1 -281 -22 -49 -87 -124 -107 -124 -8 0 -14 -4 -14 -10 0 -5 -7 -7 -15
-4 -22 9 -8 62 31 113 58 76 57 153 -5 321 -30 81 -61 226 -61 280 0 16 17 43
45 73 25 26 45 54 45 62 0 7 -14 24 -30 37 -29 23 -30 26 -18 54 19 42 49 85
57 79 4 -2 5 9 3 25 -4 25 5 39 59 93 115 115 245 162 380 137z m-538 -800 c8
-25 27 -78 41 -118 29 -81 32 -128 14 -179 -16 -45 -28 -42 -28 8 0 118 -88
308 -184 398 l-25 24 59 38 c32 21 62 44 66 51 5 8 15 -26 25 -82 9 -52 24
-115 32 -140z m-127 3 c-3 -7 0 -12 7 -10 7 1 11 -6 11 -16 -1 -10 0 -16 3
-13 22 22 83 -139 90 -238 6 -75 1 -93 -39 -141 -5 -5 -17 -21 -28 -34 -26
-31 -26 -26 0 149 25 174 25 194 -2 220 -20 18 -36 20 -162 21 -78 1 -132 4
-121 6 35 9 98 41 150 77 l50 34 23 -21 c12 -11 20 -27 18 -34z m-1235 -3
c100 -49 115 -50 124 -9 5 23 11 29 23 23 10 -4 55 -18 102 -32 78 -23 101
-25 290 -25 177 0 214 2 272 20 37 11 70 18 73 15 3 -3 5 -16 5 -29 l0 -23
-512 0 c-467 0 -513 -1 -530 -17 -18 -16 -18 -16 -12 0 3 9 10 17 15 17 5 0 8
3 7 8 -2 7 51 92 58 92 2 0 40 -18 85 -40z m1234 -109 c-11 -5 -317 -9 -680
-10 -363 -1 -664 -6 -669 -11 -5 -5 5 -104 23 -232 80 -567 77 -539 53 -524
-5 3 -12 43 -16 88 -4 46 -11 108 -16 138 -10 60 -55 389 -65 482 -4 32 -4 62
0 68 4 7 239 10 698 9 381 0 683 -4 672 -8z m-1391 -216 c9 -66 18 -130 21
-143 5 -21 3 -22 -15 -12 -11 6 -33 29 -48 52 -23 35 -27 52 -26 107 0 36 9
98 20 136 l19 70 6 -45 c4 -25 14 -99 23 -165z m-55 -222 c18 -27 48 -59 66
-73 27 -20 34 -34 39 -75 3 -27 10 -84 15 -125 8 -63 7 -78 -6 -93 -9 -9 -19
-34 -22 -55 l-7 -37 -59 4 c-180 10 -313 145 -323 327 -4 64 -2 73 23 102 68
81 172 50 256 -78 l16 -25 -1 32 c0 17 -4 31 -8 30 -3 -1 -18 15 -33 37 -25
36 -25 39 -9 57 9 11 18 19 19 19 1 0 16 -21 34 -47z m1595 -17 c-13 -21 -19
-24 -25 -14 -6 9 -9 5 -8 -12 0 -14 -3 -38 -7 -55 -6 -27 -4 -26 24 15 76 111
181 136 247 58 25 -29 27 -38 23 -103 -6 -128 -85 -246 -196 -295 -44 -20 -73
-26 -156 -35 -45 -5 -48 -4 -43 16 7 25 -8 68 -28 83 -12 9 -11 29 3 133 17
121 17 121 55 151 46 37 72 69 82 101 7 23 7 23 27 3 19 -19 19 -21 2 -46z
m-1411 -383 c-7 -2 -19 -2 -25 0 -7 3 -2 5 12 5 14 0 19 -2 13 -5z m1214 1
c-3 -3 -12 -4 -19 -1 -8 3 -5 6 6 6 11 1 17 -2 13 -5z"/>
<path d="M2695 3140 c-3 -5 -1 -10 4 -10 6 0 11 5 11 10 0 6 -2 10 -4 10 -3 0
-8 -4 -11 -10z"/>
<path d="M2672 3035 c0 -16 2 -22 5 -12 2 9 2 23 0 30 -3 6 -5 -1 -5 -18z"/>
<path d="M2542 2967 c-7 -8 -7 -18 -2 -27 6 -8 10 -10 11 -5 0 6 2 18 4 28 4
20 1 21 -13 4z"/>
<path d="M2672 2875 c0 -16 2 -22 5 -12 2 9 2 23 0 30 -3 6 -5 -1 -5 -18z"/>
<path d="M2652 2810 c0 -14 2 -19 5 -12 2 6 2 18 0 25 -3 6 -5 1 -5 -13z"/>
<path d="M2661 2775 c1 -19 18 -51 18 -35 0 8 -4 22 -9 30 -5 8 -9 11 -9 5z"/>
<path d="M2717 2679 c4 -13 8 -18 11 -10 2 7 -1 18 -6 23 -8 8 -9 4 -5 -13z"/>
<path d="M2733 2635 c0 -8 4 -12 8 -9 4 2 10 -2 12 -8 4 -8 6 -9 6 -2 1 6 -5
17 -12 23 -10 8 -14 7 -14 -4z"/>
<path d="M1290 3170 c0 -5 5 -10 11 -10 5 0 7 5 4 10 -3 6 -8 10 -11 10 -2 0
-4 -4 -4 -10z"/>
<path d="M1274 3129 c-8 -14 14 -19 25 -6 8 10 7 14 -5 14 -8 0 -17 -4 -20 -8z"/>
<path d="M1295 3080 c3 -5 8 -10 11 -10 2 0 4 5 4 10 0 6 -5 10 -11 10 -5 0
-7 -4 -4 -10z"/>
<path d="M1312 3035 c0 -16 2 -22 5 -12 2 9 2 23 0 30 -3 6 -5 -1 -5 -18z"/>
<path d="M1391 3004 c-1 -5 5 -18 12 -28 12 -16 13 -16 13 3 0 11 -3 18 -7 15
-4 -2 -10 2 -12 8 -3 7 -6 8 -6 2z"/>
<path d="M1331 2974 c0 -11 3 -14 6 -6 3 7 2 16 -1 19 -3 4 -6 -2 -5 -13z"/>
<path d="M1370 2877 c0 -2 6 -10 14 -16 11 -9 16 -9 22 1 4 7 4 10 -1 6 -4 -4
-14 -3 -22 3 -7 6 -13 9 -13 6z"/>
<path d="M1295 2770 c-3 -5 -3 -15 1 -21 3 -6 0 -15 -7 -20 -10 -6 -10 -9 -2
-9 7 0 17 10 24 21 9 17 8 20 -2 14 -9 -6 -11 -3 -6 8 7 19 2 23 -8 7z"/>
<path d="M2102 2635 c0 -16 2 -22 5 -12 2 9 2 23 0 30 -3 6 -5 -1 -5 -18z"/>
<path d="M1601 2463 c-19 -8 -55 -45 -61 -63 -2 -8 -4 -45 -5 -81 0 -57 4 -71
28 -102 25 -34 32 -37 76 -37 44 0 51 3 77 37 22 29 29 50 32 98 3 52 0 65
-24 102 -32 49 -75 65 -123 46z m104 -68 c17 -37 20 -112 5 -135 -8 -12 -10
-9 -10 13 0 16 -10 38 -25 52 -28 28 -45 32 -45 10 0 -9 -8 -19 -17 -22 -24
-9 -33 -23 -34 -53 -1 -47 -18 10 -18 66 -2 111 100 160 144 69z"/>
<path d="M2240 2461 c-8 -6 -19 -7 -25 -4 -5 4 -7 3 -3 -2 4 -4 -1 -15 -11
-24 -28 -25 -44 -104 -30 -154 16 -63 53 -97 104 -97 90 0 142 115 98 216 -9
22 -16 42 -15 47 1 4 -1 6 -5 5 -5 -1 -21 4 -36 10 -34 14 -57 15 -77 3z m71
-31 c45 -25 63 -114 34 -170 -16 -31 -29 -41 -19 -15 10 26 -5 65 -25 65 -10
0 -22 9 -27 20 -8 19 -11 19 -31 5 -12 -8 -25 -30 -29 -48 l-7 -32 -9 30 c-26
92 43 182 113 145z"/>
<path d="M1897 2211 c-47 -10 -60 -22 -55 -52 5 -34 62 -69 114 -69 34 0 51 7
79 31 41 36 45 61 11 77 -34 15 -105 22 -149 13z m103 -31 c0 -5 -20 -10 -45
-10 -25 0 -45 5 -45 10 0 6 20 10 45 10 25 0 45 -4 45 -10z"/>
<path d="M2216 2132 c-3 -5 1 -9 9 -9 8 0 12 4 9 9 -3 4 -7 8 -9 8 -2 0 -6 -4
-9 -8z"/>
<path d="M2064 2094 c-21 -22 -36 -50 -40 -74 -8 -52 -37 -59 -149 -34 -11 3
-4 -4 15 -15 19 -11 54 -23 77 -27 126 -19 292 114 211 170 -38 27 -77 20
-114 -20z"/>
<path d="M1017 1063 c-14 -13 -7 -62 11 -71 26 -14 42 -4 42 27 0 39 -32 65
-53 44z"/>
<path d="M1095 1010 c-7 -12 12 -40 26 -40 5 0 9 11 9 25 0 25 -23 35 -35 15z"/>
<path d="M982 958 c5 -32 28 -35 28 -4 0 17 -5 26 -16 26 -10 0 -14 -7 -12
-22z"/>
<path d="M1051 944 c-41 -29 -13 -143 39 -159 27 -9 60 12 61 38 5 93 -48 157
-100 121z"/>
<path d="M2941 1041 c-16 -29 -13 -49 8 -60 25 -14 44 8 39 46 -4 34 -32 42
-47 14z"/>
<path d="M2877 997 c-7 -19 8 -41 22 -33 16 10 14 46 -3 46 -8 0 -16 -6 -19
-13z"/>
<path d="M2994 955 c-4 -14 -3 -29 1 -33 10 -10 35 28 28 44 -8 22 -22 16 -29
-11z"/>
<path d="M2913 940 c-67 -27 -78 -170 -14 -170 32 0 81 68 81 112 0 19 -33 70
-43 67 -1 0 -12 -4 -24 -9z"/>
</g>
</svg>
