<?xml version="1.0" encoding="UTF-8"?><svg id="Layer_5" xmlns="http://www.w3.org/2000/svg" viewBox="0 0 627.44 524.83"><defs><style>.cls-1{fill:#fff;}</style></defs><path class="cls-1" d="m613.34,456.04c-21.85,35.53-68.67,48.14-107.61,52.28-43.96,4.67-88.68-1.68-129.68-18.21-20.46-8.25-40.14-19.31-57.68-32.7s-32.03-28.89-39.11-49.05c-6.53-18.59-6.77-38.97-1-57.78s18.73-39.85,38.91-44.94c10.89-2.75,22.9-2.37,34.06-2.06,11.23.31,22.77,1.54,33.21,5.96,16.39,6.93,31.84,25.46,23.78,43.97-7.45,17.11-28.61,24.96-45.01,30.28-20.42,6.63-41.63,10.73-63.06,12.1-42.42,2.71-85.79-4.52-124.4-22.54-37.37-17.43-69.48-44.53-92.63-78.68-22.49-33.19-36.89-72.18-39.59-112.29-3.19-47.48,11.47-94.55,30.54-137.53,5.06-11.4,10.6-22.57,16.53-33.54,4.6-8.49-8.35-16.07-12.95-7.57-13.07,24.14-24.13,49.38-32.91,75.39-8.56,25.36-15.12,51.61-16.45,78.44-2.2,44.49,9.63,89.32,31.51,127.97,21.99,38.84,54.4,71.54,93.48,93.18,41.18,22.81,88.7,33.73,135.68,32.65,23.56-.54,47.17-4.04,69.83-10.55,19.66-5.65,41.77-13.22,55.44-29.34,15.33-18.09,13.7-41.8-1.37-59.53-16.4-19.29-42.88-23.36-66.82-23.44-12.49-.04-25.88-.15-37.76,4.17s-20.39,12.05-27.72,21.48c-13.8,17.75-21.09,40-21.42,62.43-.34,22.48,6.55,44.79,20.04,62.82,14.51,19.4,34.25,34.29,54.96,46.57,41.76,24.76,90.22,38.06,138.71,38.82,44.99.71,96.16-7.92,132.09-36.87,8.46-6.82,15.66-15.06,21.36-24.31,5.07-8.25-7.9-15.79-12.95-7.57h0Z"/><path class="cls-1" d="m13.82,66.13c4.34-9.79,13.57-15.31,22.25-20.89,11.1-7.15,22.41-13.96,33.91-20.44,2.79-1.57,5.57-3.29,8.45-4.68l1.4-.72c1.41-.28,1.56-.42.44-.43-1.19-1.19.21,2.33.29,2.53,2.31,6.08,4.52,12.2,6.78,18.29,4.75,12.8,9.49,25.61,14.24,38.41,3.33,8.97,17.83,5.09,14.46-3.99-5.65-15.24-11.3-30.49-16.95-45.73-2.36-6.38-4.07-15.34-8.9-20.36-5.54-5.76-12.93-4.25-19.33-.97-14.27,7.33-28.05,15.94-41.54,24.6-10.94,7.02-22.96,14.44-28.44,26.8-1.65,3.73-1.06,8.02,2.69,10.26,3.18,1.9,8.62,1,10.26-2.69h0Z"/></svg>